<?xml version="1.0"?>
<svg xmlns="http://www.w3.org/2000/svg" xmlns:xlink="http://www.w3.org/1999/xlink" xmlns:svgjs="http://svgjs.com/svgjs" version="1.1" width="512" height="512" x="0" y="0" viewBox="0 0 128 128" style="enable-background:new 0 0 512 512" xml:space="preserve" class=""><g><path xmlns="http://www.w3.org/2000/svg" d="m116.058 46.473-12.2-20.461a1.749 1.749 0 0 0 -2.412-.6c-1.457.888-6.9 4.182-7.049 4.3-11.773 9.338-29.187 2.745-35.744 9.739l-1.425 1.521a111.819 111.819 0 0 1 -27.543.223l-7.375-2.726a1.752 1.752 0 0 0 -2.249 1.031l-8.261 22.346a1.75 1.75 0 0 0 1.035 2.248c4.507 2.065 9.26 1.923 18.769 10.347l-1.917 3.328a6.745 6.745 0 0 0 2.528 9.242 6.644 6.644 0 0 0 5.4.522 6.7 6.7 0 0 0 8.669 4.982 6.7 6.7 0 0 0 8.672 4.977 6.664 6.664 0 0 0 3.268 4.457 6.769 6.769 0 0 0 9.176-2.509l1.9-3.288 6.1 2.314a6.932 6.932 0 0 0 8.655-3.233 6.8 6.8 0 0 0 .615-4.051 6.9 6.9 0 0 0 7.525-3.551 6.815 6.815 0 0 0 .631-3.945 6.75 6.75 0 0 0 8.825-4.574 6.931 6.931 0 0 0 -4.327-8.159l-1.492-.565a6.794 6.794 0 0 0 2.14-3.366 6.637 6.637 0 0 0 -1-5.559c2.858-4.68 4.582-4.657 18.5-12.6a1.749 1.749 0 0 0 .586-2.39zm-93.32-4.115 4.245 1.57-7.212 19-4.078-1.507zm11.2 41.606a3.248 3.248 0 0 1 -1.216-4.449l4.75-8.247a3.249 3.249 0 1 1 5.632 3.242c-.057.1-4.894 8.5-4.744 8.238v.006a3.259 3.259 0 0 1 -4.419 1.21zm8.672 4.98a3.248 3.248 0 0 1 -1.21-4.444c.059-.1 5.066-8.8 4.75-8.248a3.249 3.249 0 0 1 5.64 3.227v.005l-4.75 8.247-.012.024a3.259 3.259 0 0 1 -4.415 1.189zm8.67 4.979a3.244 3.244 0 0 1 -1.227-4.429l.007-.012c.109-.189 4.823-8.374 4.749-8.247l.008-.015a3.249 3.249 0 0 1 5.629 3.248l-4.746 8.238v.006a3.258 3.258 0 0 1 -4.417 1.211zm13.088 3.771a3.25 3.25 0 0 1 -5.634-3.24l4.75-8.248a3.25 3.25 0 0 1 5.634 3.242zm16.542-4.011a3.4 3.4 0 0 1 -4.272 1.511l-5.57-2.114 1.086-1.886a6.688 6.688 0 0 0 .824-4.346l6.173 2.344h.006a3.26 3.26 0 0 1 1.756 4.488zm15.167-19.457a3.4 3.4 0 0 1 2.194 3.963 3.247 3.247 0 0 1 -4.29 2.2l-28.733-10.912a1.749 1.749 0 1 0 -1.242 3.271l23.288 8.841a3.259 3.259 0 0 1 1.757 4.493 3.4 3.4 0 0 1 -4.273 1.5l-4.375-1.658-16.914-6.424a6.709 6.709 0 0 0 -7.937-3.06 6.715 6.715 0 0 0 -8.671-4.978 6.664 6.664 0 0 0 -3.268-4.45 6.765 6.765 0 0 0 -9.172 2.508l-1.048 1.82a47.856 47.856 0 0 0 -10.379-7.095c9.956-26.21 6.714-17.677 7.38-19.431a114.465 114.465 0 0 0 23.152.082l-7.812 8.33a6.746 6.746 0 0 0 9.834 9.238l10.191-10.86a4.515 4.515 0 0 1 6.816.281 18.085 18.085 0 0 0 7.743 5.661l12.087 4.591a3.414 3.414 0 0 1 2.188 3.963 3.26 3.26 0 0 1 -4.279 2.2l-.014-.01-21.5-8.163a1.749 1.749 0 1 0 -1.245 3.273c11.284 4.282-20.791-7.894 28.522 10.826zm-1.777-15.094c-.34-.164.663.227-12.741-4.858a14.551 14.551 0 0 1 -6.244-4.563 8.01 8.01 0 0 0 -12.11-.5l-10.188 10.859a3.246 3.246 0 0 1 -4.731-4.446l12.92-13.779c2.855-3.045 5.343-1.822 18.783-3.387a30.212 30.212 0 0 0 14.99-4.842l10.4 17.113c-2.048 1.389-6.989 2.162-11.079 8.403zm14.146-10.1-10.553-17.362 3.867-2.351 10.4 17.455z" fill="#e18e0b" data-original="#000000" style=""/></g></svg>
