<?xml version="1.0"?>
<svg xmlns="http://www.w3.org/2000/svg" xmlns:xlink="http://www.w3.org/1999/xlink" xmlns:svgjs="http://svgjs.com/svgjs" version="1.1" width="512" height="512" x="0" y="0" viewBox="0 0 48 48" style="enable-background:new 0 0 512 512" xml:space="preserve" class=""><g><g xmlns="http://www.w3.org/2000/svg" id="Line"><path d="M43,13H5a3,3,0,0,0-3,3V39a3,3,0,0,0,3,3v1a3,3,0,0,0,3,3h4a3,3,0,0,0,3-3V42H33v1a3,3,0,0,0,3,3h4a3,3,0,0,0,3-3V42a3,3,0,0,0,3-3V16A3,3,0,0,0,43,13ZM5,15H43a1,1,0,0,1,1,1V35H4V16A1,1,0,0,1,5,15Zm8,28a1,1,0,0,1-1,1H8a1,1,0,0,1-1-1V42h6Zm28,0a1,1,0,0,1-1,1H36a1,1,0,0,1-1-1V42h6Zm2-3H5a1,1,0,0,1-1-1V37H44v2A1,1,0,0,1,43,40Z" fill="#1e9939" data-original="#000000" style="" class=""/><path d="M12.25,31.66a1,1,0,0,0,1.5,0l5.48-6.26a4.18,4.18,0,0,0-5.65-6.09l-.58.44-.58-.44A4.18,4.18,0,0,0,6.77,25.4ZM8.05,21.53a2.16,2.16,0,0,1,1.87-1.05,2.11,2.11,0,0,1,1.29.43l1.19.89a1,1,0,0,0,1.2,0l1.18-.89a2.17,2.17,0,0,1,1.73-.39,2.17,2.17,0,0,1,1.21,3.56L13,29.48l-4.72-5.4A2.15,2.15,0,0,1,8.05,21.53Z" fill="#1e9939" data-original="#000000" style="" class=""/><path d="M23,27h4a1,1,0,0,0,.83-.45L29,24.8l1.17,1.75a1,1,0,0,0,.94.44,1,1,0,0,0,.83-.64L33.56,22,35,32.14a1,1,0,0,0,.92.86H36a1,1,0,0,0,1-.73L38.75,26H41a1,1,0,0,0,0-2H38a1,1,0,0,0-1,.73l-.71,2.49L35,17.86a1,1,0,0,0-1.93-.21l-2.31,6.17-.92-1.37a1,1,0,0,0-1.66,0L26.46,25H23a1,1,0,0,0,0,2Z" fill="#1e9939" data-original="#000000" style="" class=""/><path d="M26,9.24l.11.21A1,1,0,0,0,27,10a.93.93,0,0,0,.45-.11,1,1,0,0,0,.44-1.34l-.1-.21a4.24,4.24,0,0,0-7.58,0l-.1.21a1,1,0,0,0,1.78.9L22,9.24a2.23,2.23,0,0,1,4,0Z" fill="#1e9939" data-original="#000000" style="" class=""/><path d="M29.17,6.55A1,1,0,0,0,30,7a.94.94,0,0,0,.55-.17,1,1,0,0,0,.28-1.38A7.72,7.72,0,0,0,24.39,2h-.78a7.72,7.72,0,0,0-6.44,3.45,1,1,0,0,0,1.66,1.1A5.75,5.75,0,0,1,23.61,4h.78A5.75,5.75,0,0,1,29.17,6.55Z" fill="#1e9939" data-original="#000000" style="" class=""/><path d="M24,10a1,1,0,1,0,1,1,1,1,0,0,0-1-1Z" fill="#1e9939" data-original="#000000" style="" class=""/></g></g></svg>
