<?xml version="1.0"?>
<svg xmlns="http://www.w3.org/2000/svg" xmlns:xlink="http://www.w3.org/1999/xlink" xmlns:svgjs="http://svgjs.com/svgjs" version="1.1" width="512" height="512" x="0" y="0" viewBox="0 0 512 512" style="enable-background:new 0 0 512 512" xml:space="preserve" class=""><g><g xmlns="http://www.w3.org/2000/svg" id="SOLID"><path d="M348.43945,442.3833A205.89708,205.89708,0,0,1,256,464a209.92494,209.92494,0,0,1-38.52832-3.55957L214.52832,476.167A225.92,225.92,0,0,0,256,480a221.764,221.764,0,0,0,99.56055-23.28857Z" fill="#1e9939" data-original="#000000" style=""/><path d="M428.97852,140.4502l13.29687-8.9004a225.07669,225.07669,0,0,0-86.71484-76.26123l-7.1211,14.32813A209.04681,209.04681,0,0,1,428.97852,140.4502Z" fill="#1e9939" data-original="#000000" style=""/><path d="M91.11523,129.187A208.56108,208.56108,0,0,1,178.96484,62.73l-5.92968-14.86133a224.20543,224.20543,0,0,0-139.668,183.25244l15.90234,1.75782A207.22949,207.22949,0,0,1,91.11523,129.187Z" fill="#1e9939" data-original="#000000" style=""/><path d="M267.0166,420.1687A23.99218,23.99218,0,1,0,288,377.37622V294.62378a23.99423,23.99423,0,1,0-20.9834-42.79254l-83.24536-48.55976a24,24,0,1,0-47.54248,0L52.9834,251.83124A23.9922,23.9922,0,1,0,32,294.62378v82.75244A23.99421,23.99421,0,1,0,52.9834,420.1687l83.24536,48.55982a24,24,0,1,0,47.54248,0ZM280,408a8,8,0,1,1,8-8A8.00917,8.00917,0,0,1,280,408Zm0-144a8,8,0,1,1-8,8A8.00917,8.00917,0,0,1,280,264Zm-8,30.62378v82.75244a24.0321,24.0321,0,0,0-8.51221,5.23169l-79.69922-43.47217a23.359,23.359,0,0,0,0-6.27148l79.69922-43.47217A24.0321,24.0321,0,0,0,272,294.62378ZM257.169,264.61035a23.76758,23.76758,0,0,0-.95752,10.52539l-79.69922,43.47217A24.0299,24.0299,0,0,0,168,313.37622V222.62384a24.0305,24.0305,0,0,0,8.40259-5.12726ZM160,192a8,8,0,1,1-8,8A8.00917,8.00917,0,0,1,160,192Zm8,144a8,8,0,1,1-8-8A8.00917,8.00917,0,0,1,168,336ZM143.59741,217.49658A24.0305,24.0305,0,0,0,152,222.62384v90.75238a24.0299,24.0299,0,0,0-8.51221,5.23169L63.78857,275.13574a23.76433,23.76433,0,0,0-.95776-10.52539ZM40,264a8,8,0,1,1-8,8A8.00917,8.00917,0,0,1,40,264Zm0,144a8,8,0,1,1,8-8A8.00917,8.00917,0,0,1,40,408Zm8-30.62378V294.62378a24.0299,24.0299,0,0,0,8.51221-5.23169l79.69922,43.47217a23.359,23.359,0,0,0,0,6.27148L56.51221,382.60791A24.0299,24.0299,0,0,0,48,377.37622Zm14.83081,30.01343a23.76433,23.76433,0,0,0,.95776-10.52539l79.69922-43.47217A24.0299,24.0299,0,0,0,152,358.62378v90.75244a24.02858,24.02858,0,0,0-8.40259,5.1272ZM160,480a8,8,0,1,1,8-8A8.00917,8.00917,0,0,1,160,480Zm16.40259-25.49658A24.02858,24.02858,0,0,0,168,449.37622V358.62378a24.0299,24.0299,0,0,0,8.51221-5.23169l79.69922,43.47217a23.76758,23.76758,0,0,0,.95752,10.52539Z" fill="#1e9939" data-original="#000000" style=""/><path d="M189.89648,136H200v32a8.03252,8.03252,0,0,0,8.02979,8A24.02755,24.02755,0,0,1,232,200v24h56V181.793a24.04618,24.04618,0,0,1,5.56152-15.36377l19.6045-23.5249A63.70856,63.70856,0,0,0,318.17188,136h-34.8584l-13.65625,13.65674-11.31446-11.31348L276.68652,120H325.374A63.93013,63.93013,0,0,0,328,101.93262V96a63.63193,63.63193,0,0,0-4.68652-23.99963L299.31348,96H280V80h12.68652l22.44385-22.44415a63.88812,63.88812,0,0,0-69.20166-22.941L264,52.68652V80H248V59.31348L230.3064,41.62024a64.486,64.486,0,0,0-20.68628,20.6861L243.31348,96H264v16H236.68652L202.61475,77.92865A63.776,63.776,0,0,0,200,96v2.42236l-16.76,25.14A8.00005,8.00005,0,0,0,189.89648,136Z" fill="#1e9939" data-original="#000000" style=""/><path d="M444.7998,425.6001,429.333,413.99976l25.0664-18.8A103.84849,103.84849,0,0,0,480,256.69312V256h-.438a103.66018,103.66018,0,0,0-25.1626-27.19971L429.333,210.00018,444.7998,198.3999A88.42114,88.42114,0,0,0,480,128H464a71.71608,71.71608,0,0,1-4.16064,24H372.16064A71.71608,71.71608,0,0,1,368,128H352a88.42114,88.42114,0,0,0,35.2002,70.3999L402.667,210.00018l-25.0664,18.80011A103.66018,103.66018,0,0,0,352.438,256H352v.69312a103.84849,103.84849,0,0,0,25.60059,138.50659l25.0664,18.80005L387.2002,425.6001A88.42114,88.42114,0,0,0,352,496h16a71.71582,71.71582,0,0,1,4.16064-24h87.67872A71.71582,71.71582,0,0,1,464,496h16A88.42114,88.42114,0,0,0,444.7998,425.6001Zm-48-240A71.70543,71.70543,0,0,1,380.18311,168h71.63378a71.70543,71.70543,0,0,1-16.61669,17.6001L416,200.00043Zm-9.5996,56L416,220l28.7998,21.6001A87.29183,87.29183,0,0,1,459.84033,256H372.15967A87.29183,87.29183,0,0,1,387.2002,241.6001ZM361.68018,272H470.31982a88.33989,88.33989,0,0,1,9.30664,32H352.37354A88.33989,88.33989,0,0,1,361.68018,272Zm0,80a88.33989,88.33989,0,0,1-9.30664-32H479.62646a88.33989,88.33989,0,0,1-9.30664,32Zm25.52,30.3999A87.29183,87.29183,0,0,1,372.15967,368h87.68066a87.29183,87.29183,0,0,1-15.04053,14.3999L416,404ZM380.18311,456a71.70649,71.70649,0,0,1,16.61669-17.6001L416,423.99951l19.2002,14.40039A71.70649,71.70649,0,0,1,451.81689,456Z" fill="#1e9939" data-original="#000000" style=""/></g></g></svg>
