<?xml version="1.0"?>
<svg xmlns="http://www.w3.org/2000/svg" xmlns:xlink="http://www.w3.org/1999/xlink" xmlns:svgjs="http://svgjs.com/svgjs" version="1.1" width="512" height="512" x="0" y="0" viewBox="0 0 68 68" style="enable-background:new 0 0 512 512" xml:space="preserve" class=""><g><g xmlns="http://www.w3.org/2000/svg"><g><g><g><g><g><g><g><g><path d="m56.546875 50.543457h-2.4833984c-2.1074219 0-3.8217773-1.7148438-3.8217773-3.8222656v-13.1708984c0-2.1074219 1.7143555-3.8222656 3.8217773-3.8222656h2.4833984c2.1074219 0 3.8217773 1.7148438 3.8217773 3.8222656v13.1708984c0 2.1074219-1.7143554 3.8222656-3.8217773 3.8222656zm-2.4833984-18.8154297c-1.0043945 0-1.8217773.8173828-1.8217773 1.8222656v13.1708984c0 1.0048828.8173828 1.8222656 1.8217773 1.8222656h2.4833984c1.0043945 0 1.8217773-.8173828 1.8217773-1.8222656v-13.1708983c0-1.0048828-.8173828-1.8222656-1.8217773-1.8222656h-2.4833984z" fill="#767676" data-original="#000000" style="" class=""/></g></g><g><g><path d="m60.2773438 46.855957h-.9145508c-.5522461 0-1-.4472656-1-1s.4477539-1 1-1h.9145508c2.6040039 0 4.7226562-2.118164 4.7226562-4.7226562 0-2.5986328-2.1186523-4.7119141-4.7226563-4.7119141h-.9145507c-.5522461 0-1-.4472656-1-1s.4477539-1 1-1h.9145508c3.7070312 0 6.7226562 3.0107422 6.7226562 6.7119141 0 3.7070312-3.015625 6.7226562-6.7226562 6.7226562z" fill="#767676" data-original="#000000" style="" class=""/></g></g></g><g><g><g><path d="m13.9365234 50.543457h-2.4829102c-2.1074219 0-3.8222656-1.7148438-3.8222656-3.8222656v-13.1708984c0-2.1074219 1.7148438-3.8222656 3.8222656-3.8222656h2.4829102c2.1074219 0 3.8222656 1.7148438 3.8222656 3.8222656v13.1708984c.0000001 2.1074219-1.7148437 3.8222656-3.8222656 3.8222656zm-2.4829101-18.8154297c-1.0048828 0-1.8222656.8173828-1.8222656 1.8222656v13.1708984c0 1.0048828.8173828 1.8222656 1.8222656 1.8222656h2.4829102c1.0048828 0 1.8222656-.8173828 1.8222656-1.8222656v-13.1708983c0-1.0048828-.8173828-1.8222656-1.8222656-1.8222656h-2.4829102z" fill="#767676" data-original="#000000" style="" class=""/></g></g><g><g><path d="m8.637207 46.855957h-.9145507c-3.7070313 0-6.7226563-3.015625-6.7226563-6.7226562 0-3.7011719 3.015625-6.7119141 6.7226563-6.7119141h.9145507c.5522461 0 1 .4472656 1 1s-.4477539 1-1 1h-.9145507c-2.604004 0-4.7226563 2.1132813-4.7226563 4.7119141 0 2.6044922 2.1186523 4.7226563 4.7226563 4.7226563h.9145507c.5522461 0 1 .4472656 1 1s-.4477539.9999999-1 .9999999z" fill="#767676" data-original="#000000" style="" class=""/></g></g></g></g></g></g><g><g><g><path d="m57.1748047 31.8061523c-.5522461 0-1-.4472656-1-1v-5.8056641c-.4755859-11.8906249-10.2133789-21.236328-22.1674805-21.236328-11.9892578 0-21.7333984 9.375-22.1826172 21.34375l.0004883 5.6982422c0 .5527344-.4477539 1-1 1s-1-.4472656-1-1v-5.7353516c.4907227-13.0859375 11.1123047-23.3066406 24.1821289-23.3066406 13.0317383 0 23.6469727 10.1894531 24.1665039 23.1962891l.0009766 5.8457031c0 .5527343-.4477539.9999999-1 .9999999z" fill="#767676" data-original="#000000" style="" class=""/></g></g></g></g><g><g><g><path d="m29.7724609 27.1870117c-.3125 0-.6206055-.1455078-.8154297-.4199219-.3203125-.4501953-.215332-1.0742188.234375-1.3945313l8.4570313-6.0224609c.4492188-.3203125 1.074707-.2158203 1.3945313.234375.3203125.4501953.215332 1.0742188-.234375 1.3945313l-8.4570313 6.0224609c-.1757812.125-.378418.1855469-.5791016.1855469z" fill="#767676" data-original="#000000" style="" class=""/></g></g><g><g><path d="m29.7724609 27.1870117c-.3125 0-.6206055-.1455078-.8154297-.4199219-.3203125-.4501953-.215332-1.0742188.234375-1.3945313l8.4570313-6.0224609c.4492188-.3203125 1.074707-.2158203 1.3945313.234375.3203125.4501953.215332 1.0742188-.234375 1.3945313l-8.4570313 6.0224609c-.1757812.125-.378418.1855469-.5791016.1855469z" fill="#767676" data-original="#000000" style="" class=""/></g></g><g><g><path d="m38.2275391 27.1870117c-.2006836 0-.4033203-.0605469-.5791016-.1855469l-8.4570313-6.0224609c-.449707-.3203125-.5546875-.9443359-.234375-1.3945313.3193359-.4501953.9438477-.5546875 1.3945313-.234375l8.4570313 6.0224609c.449707.3203125.5546875.9443359.234375 1.3945313-.1948243.2734375-.5029297.4199219-.8154297.4199219z" fill="#767676" data-original="#000000" style="" class=""/></g></g><g><g><path d="m34 29.2563477c-.5522461 0-1-.4472656-1-1v-10.1611329c0-.5527344.4477539-1 1-1s1 .4472656 1 1v10.1611328c0 .5527344-.4477539 1.0000001-1 1.0000001z" fill="#767676" data-original="#000000" style="" class=""/></g></g></g><g><g><path d="m33.9951172 39.8657227c-.2651367 0-.5195313-.1054688-.7070313-.2929688l-6.5766602-6.5771484h-4.6982422c-1.6542969 0-3-1.3457031-3-3v-13.6396485c0-1.6542969 1.3457031-3 3-3h23.9736328c1.6542969 0 3 1.3457031 3 3v13.6396484c0 1.6542969-1.3457031 3-3 3h-4.7075195l-6.5771484 6.5771484c-.1875.1875001-.4418945.2929689-.7070312.2929689zm-11.9819336-24.5097657c-.5512695 0-1 .4482422-1 1v13.6396484c0 .5517578.4487305 1 1 1h5.1123047c.2651367 0 .5195313.1054688.7070313.2929688l6.1625977 6.1630859 6.1630859-6.1630859c.1875-.1875.4418945-.2929688.7070313-.2929688h5.121582c.5512695 0 1-.4482422 1-1v-13.6396484c0-.5517578-.4487305-1-1-1z" fill="#767676" data-original="#000000" style="" class=""/></g></g></g><g><g><path d="m40.0737305 62.9858398c-.4990234 0-.9306641-.3730469-.9912109-.8808594-.065918-.5488281.3251953-1.0458984.8735352-1.1123047 9.3979492-1.1269531 16.2192383-5.9707031 16.2192383-11.5166016 0-.5527344.4477539-1 1-1s1 .4472656 1 1c0 6.5742188-7.5620117 12.2529297-17.980957 13.5029297-.0405275.0048829-.0805666.006836-.1206056.006836z" fill="#767676" data-original="#000000" style="" class=""/></g></g><g><g><path d="m35.8652344 66.2358398c-2.9326172 0-5.2299805-1.7568359-5.2299805-4s2.2973633-4 5.2299805-4 5.2299805 1.7568359 5.2299805 4-2.2973633 4-5.2299805 4zm0-6c-1.7509766 0-3.2299805.9160156-3.2299805 2s1.4790039 2 3.2299805 2 3.2299805-.9160156 3.2299805-2-1.479004-2-3.2299805-2z" fill="#767676" data-original="#000000" style="" class=""/></g></g></g></g></svg>
