<?xml version="1.0"?>
<svg xmlns="http://www.w3.org/2000/svg" xmlns:xlink="http://www.w3.org/1999/xlink" xmlns:svgjs="http://svgjs.com/svgjs" version="1.1" width="512" height="512" x="0" y="0" viewBox="0 0 64 64" style="enable-background:new 0 0 512 512" xml:space="preserve" class=""><g><g xmlns="http://www.w3.org/2000/svg" id="Layer_26" data-name="Layer 26"><path d="m46.73 39.31v-5.92a4.2 4.2 0 0 0 -4.19-4.19h-1.86l2.48-2.48a1 1 0 0 0 0-1.41l-10.73-10.73a1 1 0 0 0 -1.41 0l-1.92 1.91-7.7-3.84a1 1 0 0 0 -.76-.05 1 1 0 0 0 -.58.5l-8.06 16.1h-4.81a4.2 4.2 0 0 0 -4.19 4.19v23.42a4.2 4.2 0 0 0 4.19 4.19h35.35a4.2 4.2 0 0 0 4.19-4.19v-7.33a3.25 3.25 0 0 0 3-3.23v-3.73a3.23 3.23 0 0 0 -3-3.21zm-15-22.61 9.27 9.3-3.15 3.2h-2.53l.49-.5c.95-1-.63-1.61-.52-2.69a1.78 1.78 0 0 1 .52-1.27 1 1 0 0 0 0-1.42l-1.41-1.4a1 1 0 0 0 -1.41 0 1.83 1.83 0 0 1 -2.54 0 1 1 0 0 0 -1.42 0l-7.27 7.28h-2.54zm-1.12 12.5a4.49 4.49 0 0 0 -.87-1.2 4.75 4.75 0 0 0 -2.62-1.33l2.71-2.67a3.91 3.91 0 0 0 3.78 0l.18.18a3.75 3.75 0 0 0 0 3.76l-1.29 1.26zm-2.54 0h-3.43a2.84 2.84 0 0 1 3.43 0zm-7.45-4.2 1.3-2.61a3.67 3.67 0 0 0 1.28 0zm.78-10.08 6.21 3.08-1.34 1.34c-.4-.19-1-.59-1.43-.38-.71.27-.74 1.21-1.61 1.4-1 .44-2-.87-2.71.35l-4.24 8.49h-2zm21.14 44.08h-35.35a2.19 2.19 0 0 1 -2.19-2.19v-23.42a2.19 2.19 0 0 1 2.19-2.19h35.35a2.19 2.19 0 0 1 2.19 2.19v5.89h-6a2.67 2.67 0 0 0 -2.66 2.66v4.9a2.66 2.66 0 0 0 2.66 2.66h6v7.31a2.19 2.19 0 0 1 -2.19 2.19zm-4.48-15.37h.58a.76.76 0 0 1 0 1.52h-.58zm9.65 2.62a1.25 1.25 0 0 1 -1.25 1.25h-7.74a.64.64 0 0 1 -.58-.35h.5a2.76 2.76 0 0 0 0-5.52h-.5a.66.66 0 0 1 .58-.35h7.74a1.25 1.25 0 0 1 1.25 1.24z" fill="#ff9800" data-original="#000000" style=""/><path d="m45.15 3a1 1 0 0 0 0 2 13.92 13.92 0 0 1 13.85 13.92 1 1 0 0 0 1 1 1 1 0 0 0 1-1 15.91 15.91 0 0 0 -15.85-15.92z" fill="#ff9800" data-original="#000000" style=""/><path d="m45.15 7.17a1 1 0 0 0 0 2 9.75 9.75 0 0 1 9.69 9.75 1 1 0 0 0 1 1 1 1 0 0 0 1-1 11.74 11.74 0 0 0 -11.69-11.75z" fill="#ff9800" data-original="#000000" style=""/><path d="m45.15 11.35a1 1 0 0 0 0 2 5.56 5.56 0 0 1 5.52 5.57 1 1 0 0 0 1 1 1 1 0 0 0 1-1 7.55 7.55 0 0 0 -7.52-7.57z" fill="#ff9800" data-original="#000000" style=""/><path d="m45.12 22.26a3.37 3.37 0 1 0 -3.37-3.37 3.38 3.38 0 0 0 3.37 3.37zm0-4.74a1.37 1.37 0 1 1 -1.37 1.37 1.38 1.38 0 0 1 1.37-1.37z" fill="#ff9800" data-original="#000000" style=""/></g></g></svg>
