<?xml version="1.0"?>
<svg xmlns="http://www.w3.org/2000/svg" xmlns:xlink="http://www.w3.org/1999/xlink" xmlns:svgjs="http://svgjs.com/svgjs" version="1.1" width="512" height="512" x="0" y="0" viewBox="0 0 64 64" style="enable-background:new 0 0 512 512" xml:space="preserve" class=""><g><path xmlns="http://www.w3.org/2000/svg" d="m45.52 27.15-13-8a1 1 0 0 0 -1 0l-13 8a1 1 0 0 0 -.52 1.12 1 1 0 0 0 1 .73h3v10h-2a1 1 0 0 0 -1 1v4a1 1 0 0 0 1 1h24a1 1 0 0 0 1-1v-4a1 1 0 0 0 -1-1h-2v-10h3a1 1 0 0 0 1-.73 1 1 0 0 0 -.48-1.12zm-15.52 11.85v-10h4v10zm-6-10h4v10h-4zm16 10h-4v-10h4z" fill="#767676" data-original="#000000" style="" class=""/><path xmlns="http://www.w3.org/2000/svg" d="m55 48a7 7 0 0 0 -4.18 1.4l-3.3-3.3a20.88 20.88 0 0 0 0-28.2l3.3-3.3a7 7 0 1 0 -1.42-1.42l-3.3 3.3a20.88 20.88 0 0 0 -28.2 0l-3.3-3.3a7 7 0 1 0 -1.42 1.42l3.3 3.3a20.88 20.88 0 0 0 0 28.2l-3.3 3.3a7 7 0 1 0 1.42 1.42l3.3-3.3a20.88 20.88 0 0 0 28.2 0l3.3 3.3a7 7 0 1 0 5.6-2.82zm-3-40h2v-2h2v2h2v2h-2v2h-2v-2h-2zm-40 2h-2v2h-2v-2h-2v-2h2v-2h2v2h2zm0 46h-2v2h-2v-2h-2v-2h2v-2h2v2h2zm20-5a19 19 0 1 1 19-19 19 19 0 0 1 -19 19zm26 5h-2v2h-2v-2h-2v-2h2v-2h2v2h2z" fill="#767676" data-original="#000000" style="" class=""/><path xmlns="http://www.w3.org/2000/svg" d="m55 25h2v2h-2z" fill="#767676" data-original="#000000" style="" class=""/><path xmlns="http://www.w3.org/2000/svg" d="m55 29h2v2h-2z" fill="#767676" data-original="#000000" style="" class=""/><path xmlns="http://www.w3.org/2000/svg" d="m55 33h2v2h-2z" fill="#767676" data-original="#000000" style="" class=""/><path xmlns="http://www.w3.org/2000/svg" d="m55 37h2v2h-2z" fill="#767676" data-original="#000000" style="" class=""/><path xmlns="http://www.w3.org/2000/svg" d="m59 27h2v2h-2z" fill="#767676" data-original="#000000" style="" class=""/><path xmlns="http://www.w3.org/2000/svg" d="m59 31h2v2h-2z" fill="#767676" data-original="#000000" style="" class=""/><path xmlns="http://www.w3.org/2000/svg" d="m59 35h2v2h-2z" fill="#767676" data-original="#000000" style="" class=""/><path xmlns="http://www.w3.org/2000/svg" d="m7 25h2v2h-2z" fill="#767676" data-original="#000000" style="" class=""/><path xmlns="http://www.w3.org/2000/svg" d="m7 29h2v2h-2z" fill="#767676" data-original="#000000" style="" class=""/><path xmlns="http://www.w3.org/2000/svg" d="m7 33h2v2h-2z" fill="#767676" data-original="#000000" style="" class=""/><path xmlns="http://www.w3.org/2000/svg" d="m7 37h2v2h-2z" fill="#767676" data-original="#000000" style="" class=""/><path xmlns="http://www.w3.org/2000/svg" d="m3 27h2v2h-2z" fill="#767676" data-original="#000000" style="" class=""/><path xmlns="http://www.w3.org/2000/svg" d="m3 31h2v2h-2z" fill="#767676" data-original="#000000" style="" class=""/><path xmlns="http://www.w3.org/2000/svg" d="m3 35h2v2h-2z" fill="#767676" data-original="#000000" style="" class=""/><path xmlns="http://www.w3.org/2000/svg" d="m25 7h2v2h-2z" fill="#767676" data-original="#000000" style="" class=""/><path xmlns="http://www.w3.org/2000/svg" d="m29 7h2v2h-2z" fill="#767676" data-original="#000000" style="" class=""/><path xmlns="http://www.w3.org/2000/svg" d="m33 7h2v2h-2z" fill="#767676" data-original="#000000" style="" class=""/><path xmlns="http://www.w3.org/2000/svg" d="m37 7h2v2h-2z" fill="#767676" data-original="#000000" style="" class=""/><path xmlns="http://www.w3.org/2000/svg" d="m27 3h2v2h-2z" fill="#767676" data-original="#000000" style="" class=""/><path xmlns="http://www.w3.org/2000/svg" d="m31 3h2v2h-2z" fill="#767676" data-original="#000000" style="" class=""/><path xmlns="http://www.w3.org/2000/svg" d="m35 3h2v2h-2z" fill="#767676" data-original="#000000" style="" class=""/><path xmlns="http://www.w3.org/2000/svg" d="m25 55h2v2h-2z" fill="#767676" data-original="#000000" style="" class=""/><path xmlns="http://www.w3.org/2000/svg" d="m29 55h2v2h-2z" fill="#767676" data-original="#000000" style="" class=""/><path xmlns="http://www.w3.org/2000/svg" d="m33 55h2v2h-2z" fill="#767676" data-original="#000000" style="" class=""/><path xmlns="http://www.w3.org/2000/svg" d="m37 55h2v2h-2z" fill="#767676" data-original="#000000" style="" class=""/><path xmlns="http://www.w3.org/2000/svg" d="m27 59h2v2h-2z" fill="#767676" data-original="#000000" style="" class=""/><path xmlns="http://www.w3.org/2000/svg" d="m31 59h2v2h-2z" fill="#767676" data-original="#000000" style="" class=""/><path xmlns="http://www.w3.org/2000/svg" d="m35 59h2v2h-2z" fill="#767676" data-original="#000000" style="" class=""/></g></svg>
